<svg xmlns="http://www.w3.org/2000/svg" xmlns:xlink="http://www.w3.org/1999/xlink" height="200" width="400"><polygon points="0,200 0,100 1,99 2,98 3,99 4,98 5,99 6,100 7,99 8,98 9,99 10,98 11,99 12,98 13,97 14,98 15,99 16,98 17,99 18,98 19,97 20,96 21,97 22,96 23,95 24,94 25,93 26,94 27,93 28,92 29,93 30,94 31,95 32,94 33,93 34,92 35,91 36,90 37,89 38,88 39,87 40,86 41,87 42,88 43,87 44,86 45,87 46,88 47,89 48,90 49,89 50,88 51,87 52,86 53,85 54,84 55,83 56,84 57,85 58,86 59,87 60,88 61,87 62,86 63,85 64,84 65,83 66,84 67,85 68,84 69,83 70,82 71,81 72,80 73,81 74,82 75,81 76,82 77,83 78,82 79,81 80,82 81,81 82,80 83,79 84,80 85,79 86,78 87,79 88,80 89,79 90,78 91,79 92,78 93,77 94,78 95,79 96,78 97,79 98,80 99,79 100,80 101,79 102,78 103,77 104,78 105,79 106,78 107,79 108,80 109,81 110,80 111,81 112,80 113,81 114,82 115,81 116,80 117,79 118,78 119,79 120,80 121,81 122,82 123,83 124,84 125,83 126,82 127,83 128,84 129,85 130,86 131,87 132,86 133,85 134,84 135,83 136,82 137,81 138,82 139,81 140,82 141,83 142,82 143,81 144,80 145,81 146,80 147,81 148,82 149,81 150,82 151,83 152,84 153,83 154,82 155,81 156,80 157,81 158,80 159,79 160,80 161,81 162,80 163,81 164,80 165,79 166,80 167,79 168,80 169,79 170,80 171,79 172,78 173,79 174,78 175,79 176,80 177,79 178,80 179,81 180,82 181,81 182,80 183,81 184,80 185,81 186,80 187,81 188,82 189,81 190,80 191,79 192,80 193,79 194,78 195,77 196,76 197,75 198,74 199,73 200,72 201,71 202,72 203,71 204,70 205,69 206,68 207,69 208,68 209,69 210,68 211,69 212,70 213,69 214,70 215,69 216,68 217,69 218,68 219,67 220,66 221,67 222,68 223,67 224,66 225,65 226,66 227,65 228,66 229,67 230,66 231,67 232,66 233,65 234,66 235,67 236,68 237,69 238,68 239,69 240,70 241,71 242,72 243,73 244,74 245,73 246,74 247,75 248,74 249,75 250,76 251,75 252,76 253,75 254,76 255,75 256,74 257,75 258,74 259,75 260,74 261,73 262,72 263,73 264,74 265,73 266,72 267,71 268,70 269,71 270,70 271,69 272,70 273,69 274,68 275,67 276,68 277,67 278,66 279,67 280,68 281,69 282,70 283,69 284,68 285,67 286,66 287,65 288,64 289,63 290,64 291,65 292,64 293,63 294,64 295,65 296,64 297,65 298,64 299,63 300,64 301,63 302,64 303,65 304,66 305,65 306,64 307,65 308,66 309,67 310,68 311,69 312,68 313,67 314,66 315,67 316,66 317,67 318,66 319,65 320,66 321,65 322,66 323,65 324,66 325,65 326,66 327,67 328,68 329,69 330,70 331,71 332,72 333,71 334,72 335,73 336,72 337,71 338,70 339,69 340,70 341,69 342,70 343,71 344,72 345,71 346,72 347,71 348,70 349,69 350,68 351,69 352,68 353,69 354,68 355,67 356,66 357,65 358,66 359,65 360,64 361,65 362,64 363,65 364,64 365,63 366,62 367,63 368,62 369,63 370,64 371,63 372,64 373,65 374,66 375,65 376,64 377,63 378,64 379,63 380,64 381,63 382,62 383,61 384,60 385,61 386,60 387,61 388,62 389,63 390,62 391,61 392,60 393,61 394,62 395,63 396,64 397,65 398,64 399,65 400,200 " style="fill:rgb(5,168,251);stroke:rgb(0,68,151)"></polygon><polygon points="0,200 0,100 1,101 2,100 3,99 4,98 5,97 6,98 7,99 8,98 9,97 10,96 11,97 12,98 13,99 14,100 15,101 16,100 17,101 18,100 19,101 20,100 21,99 22,98 23,97 24,96 25,95 26,94 27,93 28,94 29,95 30,96 31,95 32,94 33,93 34,92 35,93 36,94 37,95 38,96 39,97 40,98 41,99 42,100 43,99 44,100 45,99 46,98 47,97 48,98 49,99 50,100 51,99 52,100 53,101 54,102 55,101 56,100 57,99 58,100 59,101 60,100 61,101 62,102 63,103 64,102 65,103 66,102 67,101 68,102 69,103 70,102 71,103 72,102 73,101 74,100 75,101 76,102 77,101 78,100 79,101 80,102 81,103 82,104 83,105 84,106 85,107 86,108 87,107 88,106 89,105 90,104 91,103 92,102 93,103 94,104 95,105 96,104 97,105 98,104 99,105 100,104 101,105 102,106 103,105 104,106 105,105 106,104 107,105 108,104 109,105 110,106 111,105 112,106 113,107 114,108 115,107 116,106 117,107 118,106 119,107 120,106 121,107 122,106 123,107 124,108 125,107 126,108 127,107 128,108 129,109 130,108 131,109 132,110 133,111 134,110 135,111 136,110 137,111 138,110 139,109 140,110 141,109 142,110 143,111 144,110 145,111 146,112 147,113 148,114 149,113 150,112 151,113 152,112 153,111 154,112 155,111 156,112 157,111 158,112 159,111 160,110 161,111 162,112 163,111 164,112 165,113 166,114 167,113 168,114 169,113 170,112 171,113 172,112 173,113 174,112 175,111 176,112 177,113 178,114 179,113 180,114 181,113 182,112 183,113 184,114 185,113 186,112 187,113 188,112 189,113 190,114 191,113 192,114 193,115 194,116 195,115 196,116 197,117 198,116 199,117 200,118 201,117 202,118 203,119 204,118 205,117 206,116 207,117 208,116 209,115 210,114 211,113 212,114 213,113 214,114 215,113 216,112 217,111 218,110 219,111 220,112 221,111 222,112 223,111 224,112 225,111 226,112 227,111 228,110 229,111 230,110 231,111 232,110 233,109 234,108 235,107 236,106 237,105 238,104 239,103 240,104 241,103 242,104 243,103 244,102 245,103 246,102 247,103 248,102 249,101 250,100 251,101 252,102 253,103 254,104 255,103 256,102 257,103 258,102 259,103 260,102 261,103 262,104 263,105 264,104 265,103 266,104 267,105 268,104 269,103 270,102 271,103 272,102 273,103 274,102 275,101 276,102 277,101 278,102 279,101 280,100 281,99 282,98 283,99 284,100 285,99 286,98 287,97 288,96 289,95 290,96 291,97 292,96 293,95 294,96 295,95 296,96 297,95 298,94 299,93 300,92 301,93 302,94 303,93 304,92 305,93 306,92 307,93 308,94 309,95 310,94 311,95 312,94 313,95 314,96 315,97 316,96 317,97 318,96 319,97 320,96 321,97 322,96 323,97 324,96 325,97 326,98 327,99 328,98 329,97 330,98 331,97 332,98 333,97 334,98 335,99 336,100 337,99 338,100 339,99 340,98 341,99 342,100 343,99 344,100 345,101 346,102 347,101 348,102 349,103 350,102 351,103 352,102 353,101 354,102 355,101 356,100 357,99 358,100 359,99 360,98 361,99 362,100 363,101 364,102 365,103 366,104 367,103 368,102 369,101 370,100 371,101 372,102 373,103 374,104 375,105 376,104 377,105 378,104 379,105 380,106 381,107 382,108 383,109 384,110 385,109 386,110 387,109 388,108 389,109 390,108 391,107 392,108 393,107 394,106 395,107 396,106 397,105 398,104 399,103 400,200 " style="fill:rgb(56,189,122);stroke:rgb(0,89,22)"></polygon><polygon points="0,200 0,100 1,99 2,98 3,99 4,100 5,101 6,100 7,99 8,100 9,101 10,102 11,103 12,104 13,103 14,102 15,103 16,104 17,103 18,104 19,103 20,102 21,101 22,102 23,103 24,104 25,103 26,102 27,103 28,104 29,105 30,106 31,105 32,104 33,103 34,104 35,103 36,102 37,103 38,102 39,103 40,102 41,101 42,102 43,101 44,100 45,101 46,100 47,99 48,100 49,101 50,102 51,103 52,102 53,103 54,104 55,105 56,106 57,105 58,104 59,105 60,104 61,105 62,104 63,103 64,104 65,105 66,104 67,103 68,104 69,105 70,104 71,105 72,106 73,105 74,104 75,103 76,104 77,105 78,104 79,103 80,104 81,105 82,106 83,105 84,104 85,103 86,102 87,101 88,102 89,101 90,102 91,101 92,100 93,99 94,98 95,99 96,100 97,101 98,102 99,101 100,102 101,103 102,104 103,105 104,104 105,103 106,104 107,105 108,106 109,107 110,108 111,109 112,108 113,109 114,110 115,109 116,110 117,111 118,112 119,111 120,112 121,113 122,112 123,111 124,112 125,111 126,112 127,111 128,110 129,109 130,110 131,111 132,112 133,111 134,112 135,111 136,112 137,111 138,112 139,113 140,112 141,113 142,112 143,111 144,112 145,113 146,112 147,111 148,110 149,109 150,108 151,109 152,108 153,109 154,108 155,109 156,108 157,107 158,106 159,107 160,106 161,105 162,106 163,105 164,104 165,103 166,104 167,105 168,106 169,105 170,104 171,103 172,104 173,105 174,106 175,105 176,106 177,105 178,104 179,105 180,104 181,103 182,102 183,103 184,104 185,105 186,106 187,107 188,108 189,109 190,110 191,111 192,110 193,109 194,110 195,109 196,108 197,109 198,108 199,107 200,106 201,105 202,104 203,105 204,106 205,105 206,104 207,105 208,106 209,107 210,106 211,107 212,108 213,107 214,106 215,107 216,108 217,109 218,108 219,107 220,106 221,105 222,104 223,105 224,106 225,107 226,108 227,109 228,108 229,109 230,108 231,109 232,108 233,109 234,108 235,107 236,108 237,107 238,108 239,107 240,108 241,109 242,108 243,107 244,106 245,107 246,106 247,105 248,104 249,103 250,104 251,105 252,104 253,103 254,102 255,103 256,104 257,103 258,104 259,103 260,104 261,105 262,104 263,103 264,104 265,103 266,104 267,103 268,102 269,101 270,102 271,101 272,100 273,101 274,102 275,103 276,104 277,103 278,102 279,101 280,100 281,101 282,100 283,99 284,98 285,99 286,100 287,101 288,100 289,101 290,102 291,103 292,104 293,105 294,106 295,105 296,104 297,105 298,106 299,105 300,106 301,105 302,104 303,105 304,104 305,103 306,102 307,101 308,102 309,103 310,102 311,103 312,104 313,103 314,104 315,103 316,104 317,103 318,102 319,103 320,102 321,101 322,102 323,101 324,100 325,101 326,100 327,101 328,102 329,101 330,102 331,101 332,100 333,101 334,100 335,101 336,102 337,101 338,100 339,101 340,102 341,101 342,102 343,101 344,100 345,101 346,100 347,101 348,102 349,103 350,104 351,103 352,104 353,105 354,104 355,103 356,102 357,101 358,100 359,101 360,102 361,101 362,102 363,103 364,104 365,105 366,104 367,105 368,106 369,107 370,106 371,105 372,106 373,107 374,108 375,107 376,106 377,107 378,108 379,107 380,106 381,105 382,104 383,105 384,106 385,105 386,106 387,107 388,106 389,105 390,106 391,107 392,108 393,109 394,110 395,111 396,110 397,111 398,112 399,111 400,200 " style="fill:rgb(154,24,193);stroke:rgb(54,0,93)"></polygon><polygon points="0,200 0,100 1,99 2,98 3,99 4,98 5,99 6,98 7,99 8,98 9,99 10,100 11,99 12,98 13,97 14,96 15,95 16,94 17,93 18,92 19,93 20,92 21,93 22,94 23,93 24,94 25,95 26,94 27,95 28,96 29,95 30,94 31,93 32,92 33,93 34,92 35,91 36,92 37,91 38,90 39,89 40,88 41,87 42,86 43,87 44,86 45,87 46,86 47,85 48,86 49,87 50,88 51,87 52,86 53,87 54,86 55,87 56,88 57,89 58,88 59,87 60,88 61,87 62,88 63,89 64,90 65,89 66,90 67,91 68,92 69,91 70,92 71,93 72,92 73,91 74,90 75,91 76,92 77,91 78,92 79,93 80,94 81,95 82,94 83,95 84,94 85,95 86,94 87,95 88,96 89,95 90,96 91,95 92,94 93,93 94,92 95,91 96,92 97,91 98,92 99,91 100,90 101,89 102,88 103,89 104,90 105,89 106,90 107,89 108,88 109,89 110,88 111,89 112,88 113,89 114,90 115,91 116,92 117,93 118,94 119,93 120,94 121,93 122,92 123,93 124,92 125,93 126,92 127,93 128,92 129,93 130,92 131,93 132,94 133,95 134,94 135,95 136,94 137,93 138,92 139,93 140,92 141,93 142,94 143,93 144,92 145,91 146,92 147,93 148,92 149,93 150,92 151,93 152,94 153,93 154,94 155,93 156,94 157,95 158,96 159,95 160,96 161,95 162,96 163,95 164,94 165,95 166,96 167,95 168,94 169,95 170,96 171,97 172,96 173,95 174,94 175,93 176,94 177,95 178,94 179,93 180,92 181,91 182,90 183,91 184,90 185,89 186,88 187,89 188,88 189,89 190,90 191,91 192,90 193,89 194,88 195,89 196,88 197,87 198,88 199,87 200,86 201,85 202,84 203,85 204,84 205,85 206,84 207,85 208,84 209,83 210,82 211,81 212,82 213,83 214,84 215,83 216,82 217,83 218,82 219,81 220,80 221,81 222,82 223,81 224,82 225,83 226,82 227,83 228,84 229,85 230,86 231,87 232,86 233,85 234,84 235,83 236,84 237,83 238,82 239,83 240,82 241,81 242,80 243,79 244,78 245,79 246,80 247,81 248,82 249,83 250,84 251,83 252,82 253,81 254,80 255,79 256,78 257,79 258,80 259,79 260,78 261,79 262,80 263,81 264,80 265,79 266,80 267,79 268,78 269,79 270,78 271,79 272,80 273,79 274,78 275,79 276,78 277,79 278,80 279,79 280,80 281,79 282,80 283,81 284,80 285,81 286,80 287,79 288,78 289,79 290,80 291,81 292,82 293,83 294,82 295,83 296,82 297,81 298,82 299,81 300,80 301,81 302,80 303,79 304,78 305,79 306,80 307,79 308,80 309,79 310,80 311,81 312,82 313,83 314,84 315,85 316,84 317,83 318,82 319,83 320,82 321,81 322,82 323,81 324,80 325,81 326,82 327,83 328,82 329,81 330,80 331,81 332,82 333,81 334,80 335,79 336,78 337,77 338,76 339,77 340,78 341,77 342,78 343,79 344,78 345,79 346,78 347,79 348,80 349,79 350,78 351,79 352,78 353,79 354,80 355,79 356,80 357,79 358,80 359,81 360,82 361,81 362,80 363,79 364,80 365,79 366,80 367,81 368,82 369,81 370,82 371,83 372,82 373,81 374,80 375,79 376,80 377,81 378,80 379,79 380,78 381,77 382,76 383,77 384,76 385,75 386,76 387,75 388,76 389,75 390,74 391,75 392,76 393,77 394,78 395,79 396,80 397,81 398,80 399,79 400,200 " style="fill:rgb(215,14,66);stroke:rgb(115,0,0)"></polygon><polygon points="0,200 0,100 1,99 2,100 3,101 4,100 5,101 6,102 7,101 8,100 9,99 10,100 11,99 12,98 13,97 14,96 15,95 16,94 17,95 18,96 19,97 20,96 21,95 22,94 23,95 24,96 25,95 26,96 27,97 28,98 29,99 30,100 31,99 32,98 33,97 34,96 35,95 36,96 37,97 38,98 39,97 40,96 41,97 42,96 43,97 44,96 45,95 46,94 47,95 48,94 49,95 50,94 51,93 52,94 53,95 54,96 55,97 56,98 57,99 58,98 59,99 60,100 61,101 62,102 63,101 64,100 65,99 66,100 67,99 68,98 69,97 70,98 71,99 72,100 73,101 74,100 75,101 76,102 77,103 78,102 79,103 80,102 81,101 82,102 83,103 84,102 85,103 86,102 87,103 88,102 89,101 90,102 91,101 92,100 93,99 94,100 95,101 96,100 97,99 98,100 99,101 100,102 101,101 102,102 103,103 104,104 105,103 106,102 107,101 108,100 109,101 110,100 111,99 112,98 113,97 114,98 115,99 116,100 117,101 118,102 119,103 120,104 121,105 122,106 123,107 124,106 125,107 126,106 127,107 128,108 129,107 130,108 131,107 132,108 133,109 134,110 135,109 136,110 137,111 138,112 139,113 140,114 141,115 142,114 143,113 144,112 145,111 146,112 147,113 148,112 149,113 150,112 151,111 152,112 153,113 154,112 155,113 156,114 157,115 158,114 159,115 160,116 161,117 162,118 163,117 164,118 165,119 166,120 167,119 168,120 169,121 170,122 171,121 172,120 173,121 174,122 175,121 176,120 177,119 178,118 179,117 180,116 181,115 182,116 183,115 184,114 185,115 186,114 187,113 188,114 189,113 190,114 191,113 192,112 193,111 194,112 195,113 196,114 197,115 198,114 199,113 200,114 201,115 202,114 203,113 204,114 205,115 206,114 207,115 208,114 209,113 210,112 211,113 212,112 213,113 214,112 215,111 216,110 217,111 218,112 219,113 220,112 221,113 222,114 223,115 224,114 225,115 226,116 227,115 228,114 229,115 230,114 231,115 232,116 233,117 234,118 235,119 236,118 237,117 238,116 239,115 240,116 241,115 242,114 243,115 244,116 245,115 246,116 247,115 248,114 249,115 250,116 251,117 252,116 253,115 254,116 255,115 256,116 257,115 258,116 259,115 260,116 261,117 262,116 263,115 264,116 265,117 266,118 267,119 268,120 269,119 270,118 271,117 272,116 273,117 274,118 275,117 276,118 277,117 278,118 279,119 280,120 281,119 282,118 283,117 284,118 285,117 286,118 287,119 288,118 289,117 290,116 291,117 292,116 293,115 294,114 295,115 296,114 297,113 298,112 299,113 300,114 301,115 302,116 303,115 304,114 305,115 306,116 307,117 308,118 309,119 310,120 311,119 312,120 313,119 314,120 315,121 316,120 317,121 318,122 319,123 320,124 321,123 322,124 323,125 324,124 325,123 326,122 327,123 328,122 329,123 330,124 331,125 332,124 333,125 334,124 335,123 336,122 337,123 338,124 339,123 340,124 341,123 342,124 343,123 344,122 345,123 346,122 347,121 348,120 349,121 350,122 351,121 352,122 353,123 354,124 355,123 356,122 357,123 358,122 359,121 360,120 361,121 362,120 363,121 364,122 365,121 366,120 367,121 368,120 369,121 370,120 371,119 372,118 373,119 374,118 375,117 376,116 377,115 378,116 379,117 380,118 381,117 382,116 383,115 384,114 385,113 386,114 387,113 388,112 389,113 390,112 391,113 392,112 393,113 394,114 395,113 396,114 397,115 398,114 399,115 400,200 " style="fill:rgb(77,188,171);stroke:rgb(0,88,71)"></polygon><polygon points="0,200 0,100 1,99 2,98 3,99 4,98 5,99 6,98 7,97 8,96 9,95 10,96 11,97 12,98 13,97 14,98 15,99 16,98 17,99 18,98 19,99 20,100 21,101 22,100 23,99 24,100 25,99 26,98 27,97 28,96 29,97 30,96 31,95 32,94 33,93 34,92 35,93 36,92 37,93 38,94 39,93 40,92 41,91 42,92 43,91 44,90 45,89 46,90 47,91 48,90 49,89 50,90 51,91 52,90 53,89 54,90 55,91 56,90 57,89 58,90 59,89 60,88 61,89 62,88 63,89 64,90 65,89 66,90 67,91 68,90 69,91 70,90 71,91 72,90 73,89 74,88 75,87 76,86 77,87 78,88 79,89 80,90 81,89 82,88 83,89 84,90 85,91 86,90 87,89 88,88 89,89 90,90 91,89 92,90 93,91 94,92 95,91 96,90 97,91 98,92 99,93 100,92 101,91 102,92 103,91 104,90 105,91 106,90 107,91 108,90 109,91 110,90 111,89 112,88 113,87 114,88 115,89 116,90 117,89 118,90 119,91 120,90 121,91 122,90 123,89 124,90 125,89 126,90 127,91 128,90 129,89 130,88 131,87 132,88 133,89 134,90 135,91 136,90 137,89 138,88 139,87 140,86 141,85 142,86 143,87 144,88 145,89 146,90 147,89 148,90 149,89 150,90 151,89 152,90 153,91 154,90 155,91 156,90 157,89 158,88 159,89 160,88 161,89 162,90 163,91 164,92 165,91 166,92 167,93 168,92 169,93 170,92 171,91 172,92 173,93 174,94 175,93 176,92 177,93 178,94 179,93 180,94 181,93 182,94 183,93 184,94 185,95 186,94 187,95 188,96 189,95 190,94 191,95 192,96 193,97 194,98 195,99 196,98 197,99 198,100 199,101 200,100 201,101 202,100 203,101 204,100 205,101 206,102 207,103 208,102 209,103 210,104 211,103 212,102 213,101 214,102 215,101 216,102 217,103 218,102 219,103 220,104 221,103 222,104 223,103 224,102 225,101 226,102 227,101 228,102 229,101 230,100 231,101 232,102 233,103 234,102 235,101 236,102 237,101 238,100 239,99 240,100 241,101 242,102 243,103 244,102 245,103 246,102 247,103 248,102 249,103 250,104 251,105 252,106 253,105 254,106 255,105 256,104 257,103 258,102 259,103 260,104 261,105 262,106 263,107 264,106 265,107 266,108 267,109 268,110 269,109 270,110 271,111 272,112 273,111 274,110 275,109 276,108 277,109 278,108 279,107 280,108 281,109 282,108 283,107 284,106 285,105 286,104 287,105 288,106 289,107 290,108 291,107 292,106 293,105 294,106 295,107 296,106 297,105 298,106 299,107 300,106 301,105 302,106 303,107 304,108 305,107 306,108 307,107 308,106 309,107 310,106 311,107 312,108 313,109 314,110 315,109 316,110 317,111 318,110 319,111 320,110 321,109 322,108 323,107 324,108 325,107 326,106 327,107 328,108 329,107 330,106 331,105 332,106 333,105 334,104 335,103 336,104 337,103 338,102 339,101 340,100 341,99 342,98 343,99 344,100 345,101 346,102 347,101 348,102 349,103 350,102 351,101 352,100 353,99 354,100 355,99 356,100 357,101 358,100 359,101 360,102 361,101 362,102 363,103 364,104 365,105 366,106 367,107 368,106 369,107 370,106 371,107 372,106 373,107 374,108 375,109 376,110 377,111 378,110 379,111 380,112 381,113 382,112 383,111 384,112 385,113 386,114 387,115 388,114 389,115 390,114 391,113 392,114 393,115 394,116 395,117 396,116 397,115 398,114 399,113 400,200 " style="fill:rgb(120,168,182);stroke:rgb(20,68,82)"></polygon><polygon points="0,200 0,100 1,99 2,100 3,101 4,102 5,101 6,100 7,101 8,100 9,99 10,98 11,97 12,96 13,97 14,98 15,99 16,100 17,101 18,100 19,99 20,100 21,101 22,102 23,101 24,100 25,101 26,102 27,103 28,102 29,101 30,102 31,101 32,100 33,99 34,98 35,99 36,100 37,101 38,100 39,101 40,100 41,101 42,102 43,101 44,102 45,103 46,102 47,101 48,102 49,101 50,100 51,99 52,100 53,101 54,100 55,101 56,100 57,101 58,102 59,101 60,100 61,99 62,98 63,99 64,100 65,99 66,100 67,101 68,100 69,99 70,100 71,99 72,98 73,99 74,98 75,97 76,98 77,99 78,98 79,97 80,96 81,97 82,96 83,97 84,96 85,95 86,94 87,93 88,94 89,95 90,94 91,93 92,94 93,95 94,94 95,95 96,96 97,97 98,98 99,97 100,98 101,97 102,98 103,97 104,96 105,97 106,98 107,99 108,98 109,97 110,98 111,97 112,98 113,99 114,98 115,99 116,100 117,99 118,98 119,97 120,96 121,97 122,98 123,99 124,98 125,97 126,98 127,99 128,100 129,101 130,100 131,99 132,98 133,99 134,100 135,99 136,100 137,101 138,102 139,103 140,104 141,103 142,102 143,101 144,100 145,101 146,100 147,99 148,98 149,97 150,96 151,97 152,96 153,97 154,96 155,97 156,98 157,99 158,98 159,97 160,98 161,97 162,96 163,95 164,94 165,93 166,92 167,91 168,92 169,91 170,90 171,89 172,90 173,89 174,90 175,91 176,92 177,91 178,92 179,93 180,94 181,95 182,94 183,93 184,92 185,91 186,90 187,89 188,90 189,91 190,90 191,91 192,90 193,89 194,90 195,91 196,92 197,91 198,90 199,91 200,90 201,91 202,90 203,91 204,90 205,89 206,88 207,89 208,88 209,87 210,88 211,89 212,90 213,91 214,90 215,91 216,92 217,91 218,90 219,89 220,88 221,87 222,88 223,87 224,86 225,85 226,86 227,85 228,84 229,85 230,84 231,83 232,82 233,83 234,82 235,83 236,82 237,83 238,82 239,83 240,84 241,83 242,82 243,81 244,82 245,83 246,84 247,85 248,86 249,87 250,86 251,85 252,86 253,87 254,88 255,89 256,90 257,89 258,90 259,91 260,90 261,89 262,88 263,87 264,88 265,87 266,86 267,87 268,86 269,87 270,88 271,87 272,86 273,87 274,86 275,87 276,88 277,87 278,86 279,87 280,88 281,89 282,88 283,89 284,88 285,89 286,88 287,87 288,88 289,89 290,90 291,89 292,88 293,89 294,90 295,89 296,88 297,87 298,86 299,87 300,88 301,87 302,88 303,87 304,86 305,85 306,84 307,85 308,86 309,87 310,86 311,87 312,86 313,85 314,86 315,87 316,86 317,87 318,86 319,87 320,86 321,87 322,86 323,85 324,84 325,85 326,84 327,83 328,84 329,85 330,84 331,85 332,84 333,83 334,82 335,81 336,82 337,83 338,82 339,83 340,82 341,83 342,82 343,81 344,80 345,81 346,82 347,83 348,82 349,81 350,82 351,83 352,84 353,83 354,84 355,83 356,82 357,83 358,82 359,83 360,82 361,81 362,80 363,79 364,78 365,77 366,76 367,77 368,76 369,75 370,74 371,75 372,74 373,75 374,74 375,73 376,74 377,73 378,72 379,71 380,72 381,73 382,72 383,73 384,72 385,71 386,72 387,73 388,74 389,73 390,74 391,73 392,74 393,75 394,76 395,77 396,78 397,77 398,76 399,77 400,200 " style="fill:rgb(2,100,52);stroke:rgb(0,0,0)"></polygon><polygon points="0,200 0,100 1,99 2,100 3,101 4,100 5,99 6,100 7,99 8,100 9,101 10,100 11,101 12,100 13,99 14,100 15,99 16,100 17,101 18,100 19,99 20,98 21,99 22,98 23,97 24,98 25,97 26,98 27,99 28,100 29,101 30,102 31,103 32,104 33,105 34,106 35,107 36,106 37,105 38,106 39,107 40,108 41,109 42,108 43,109 44,110 45,111 46,110 47,111 48,112 49,111 50,110 51,111 52,110 53,109 54,110 55,109 56,110 57,109 58,110 59,111 60,112 61,111 62,110 63,111 64,110 65,109 66,110 67,111 68,112 69,113 70,114 71,113 72,112 73,113 74,114 75,115 76,114 77,113 78,114 79,113 80,112 81,113 82,112 83,113 84,112 85,111 86,110 87,111 88,112 89,111 90,110 91,111 92,110 93,111 94,110 95,109 96,110 97,111 98,112 99,111 100,112 101,111 102,110 103,109 104,110 105,111 106,110 107,109 108,110 109,109 110,110 111,109 112,110 113,109 114,108 115,109 116,108 117,109 118,108 119,107 120,106 121,107 122,106 123,107 124,108 125,107 126,108 127,107 128,106 129,107 130,108 131,109 132,108 133,107 134,108 135,109 136,108 137,109 138,108 139,109 140,108 141,107 142,106 143,105 144,104 145,103 146,102 147,103 148,102 149,103 150,104 151,103 152,102 153,103 154,102 155,101 156,100 157,99 158,100 159,99 160,98 161,97 162,98 163,99 164,100 165,99 166,98 167,97 168,96 169,97 170,98 171,97 172,96 173,97 174,96 175,97 176,98 177,99 178,100 179,99 180,100 181,101 182,100 183,99 184,100 185,99 186,98 187,99 188,98 189,97 190,98 191,97 192,96 193,97 194,98 195,99 196,98 197,97 198,98 199,97 200,98 201,99 202,98 203,97 204,96 205,97 206,98 207,97 208,98 209,99 210,98 211,97 212,98 213,99 214,98 215,99 216,98 217,99 218,100 219,101 220,102 221,103 222,104 223,103 224,102 225,103 226,102 227,101 228,102 229,101 230,100 231,99 232,98 233,97 234,98 235,99 236,98 237,97 238,96 239,97 240,98 241,99 242,98 243,99 244,100 245,101 246,100 247,101 248,100 249,101 250,100 251,101 252,100 253,99 254,98 255,97 256,96 257,97 258,96 259,97 260,98 261,99 262,100 263,101 264,102 265,103 266,104 267,105 268,104 269,103 270,104 271,103 272,102 273,103 274,102 275,103 276,104 277,103 278,104 279,103 280,102 281,101 282,100 283,101 284,100 285,101 286,102 287,101 288,102 289,103 290,104 291,103 292,104 293,103 294,102 295,103 296,104 297,103 298,104 299,105 300,104 301,103 302,102 303,103 304,102 305,103 306,102 307,101 308,102 309,101 310,100 311,99 312,98 313,99 314,98 315,99 316,98 317,99 318,98 319,97 320,98 321,99 322,98 323,99 324,98 325,99 326,100 327,101 328,102 329,103 330,104 331,105 332,106 333,105 334,106 335,105 336,106 337,107 338,108 339,109 340,108 341,109 342,108 343,109 344,110 345,109 346,108 347,109 348,110 349,109 350,108 351,107 352,106 353,105 354,104 355,105 356,104 357,105 358,106 359,107 360,108 361,107 362,106 363,107 364,106 365,107 366,106 367,105 368,106 369,107 370,108 371,109 372,108 373,109 374,108 375,107 376,108 377,109 378,110 379,111 380,110 381,111 382,110 383,111 384,112 385,113 386,114 387,115 388,116 389,117 390,118 391,119 392,118 393,119 394,120 395,121 396,120 397,121 398,120 399,121 400,200 " style="fill:rgb(192,188,183);stroke:rgb(92,88,83)"></polygon><polygon points="0,200 0,100 1,101 2,102 3,103 4,104 5,105 6,104 7,103 8,102 9,103 10,102 11,101 12,100 13,101 14,102 15,103 16,104 17,103 18,104 19,103 20,102 21,101 22,102 23,103 24,102 25,103 26,102 27,103 28,102 29,103 30,104 31,103 32,104 33,103 34,102 35,101 36,102 37,101 38,100 39,99 40,100 41,99 42,98 43,97 44,96 45,95 46,96 47,95 48,96 49,95 50,96 51,97 52,98 53,97 54,96 55,95 56,94 57,95 58,94 59,93 60,92 61,93 62,94 63,95 64,96 65,97 66,96 67,97 68,96 69,97 70,96 71,95 72,94 73,95 74,96 75,97 76,96 77,97 78,98 79,97 80,96 81,95 82,94 83,95 84,96 85,97 86,98 87,97 88,96 89,95 90,94 91,95 92,94 93,93 94,94 95,93 96,92 97,91 98,92 99,93 100,92 101,91 102,90 103,89 104,88 105,87 106,86 107,87 108,88 109,87 110,88 111,87 112,86 113,85 114,84 115,85 116,86 117,87 118,88 119,87 120,88 121,87 122,88 123,89 124,88 125,87 126,86 127,85 128,86 129,87 130,86 131,85 132,84 133,83 134,82 135,81 136,82 137,83 138,82 139,81 140,80 141,79 142,80 143,81 144,82 145,81 146,82 147,81 148,80 149,79 150,78 151,79 152,80 153,81 154,80 155,79 156,78 157,79 158,80 159,81 160,80 161,79 162,80 163,79 164,78 165,77 166,76 167,75 168,74 169,75 170,74 171,75 172,76 173,75 174,74 175,75 176,76 177,77 178,78 179,77 180,78 181,79 182,78 183,77 184,76 185,75 186,76 187,75 188,76 189,77 190,78 191,77 192,76 193,77 194,76 195,77 196,76 197,77 198,78 199,79 200,78 201,77 202,76 203,75 204,76 205,75 206,74 207,75 208,76 209,77 210,78 211,79 212,80 213,79 214,78 215,79 216,78 217,77 218,76 219,75 220,76 221,75 222,76 223,77 224,76 225,77 226,78 227,79 228,80 229,81 230,80 231,79 232,80 233,81 234,82 235,83 236,82 237,81 238,82 239,83 240,82 241,81 242,82 243,83 244,82 245,81 246,80 247,79 248,78 249,79 250,80 251,79 252,78 253,77 254,76 255,75 256,74 257,73 258,72 259,73 260,74 261,73 262,72 263,71 264,70 265,71 266,72 267,73 268,72 269,71 270,70 271,69 272,68 273,69 274,70 275,69 276,70 277,69 278,70 279,71 280,70 281,69 282,68 283,69 284,70 285,69 286,70 287,71 288,72 289,73 290,74 291,73 292,74 293,75 294,76 295,75 296,74 297,75 298,76 299,77 300,76 301,77 302,76 303,75 304,76 305,77 306,78 307,79 308,80 309,81 310,80 311,79 312,78 313,77 314,76 315,75 316,76 317,75 318,74 319,75 320,74 321,73 322,72 323,71 324,70 325,71 326,70 327,69 328,68 329,67 330,66 331,67 332,68 333,67 334,66 335,65 336,66 337,67 338,66 339,67 340,66 341,65 342,66 343,67 344,66 345,65 346,66 347,65 348,64 349,65 350,64 351,63 352,64 353,63 354,64 355,63 356,64 357,63 358,62 359,61 360,62 361,61 362,62 363,63 364,62 365,63 366,64 367,63 368,62 369,63 370,64 371,65 372,66 373,65 374,64 375,65 376,64 377,63 378,64 379,65 380,64 381,65 382,64 383,65 384,64 385,65 386,64 387,65 388,66 389,67 390,68 391,67 392,68 393,67 394,66 395,65 396,66 397,67 398,68 399,67 400,200 " style="fill:rgb(245,25,162);stroke:rgb(145,0,62)"></polygon><polygon points="0,200 0,100 1,99 2,98 3,97 4,96 5,97 6,96 7,95 8,96 9,97 10,98 11,99 12,100 13,101 14,102 15,103 16,104 17,105 18,106 19,105 20,106 21,105 22,106 23,107 24,108 25,107 26,106 27,107 28,108 29,107 30,106 31,105 32,104 33,105 34,106 35,107 36,106 37,107 38,108 39,109 40,110 41,109 42,108 43,107 44,108 45,107 46,106 47,107 48,106 49,107 50,108 51,107 52,108 53,109 54,108 55,107 56,106 57,107 58,106 59,105 60,106 61,107 62,106 63,107 64,106 65,107 66,108 67,109 68,110 69,111 70,112 71,113 72,114 73,113 74,112 75,111 76,112 77,111 78,110 79,109 80,110 81,109 82,108 83,109 84,110 85,109 86,108 87,107 88,108 89,107 90,106 91,107 92,106 93,107 94,106 95,105 96,106 97,105 98,106 99,105 100,104 101,105 102,106 103,105 104,106 105,105 106,106 107,105 108,106 109,105 110,104 111,105 112,104 113,103 114,104 115,105 116,104 117,103 118,102 119,101 120,100 121,99 122,98 123,97 124,98 125,97 126,96 127,95 128,94 129,95 130,96 131,95 132,94 133,95 134,94 135,95 136,96 137,95 138,96 139,97 140,96 141,97 142,98 143,99 144,100 145,99 146,98 147,99 148,98 149,99 150,98 151,97 152,98 153,97 154,98 155,99 156,98 157,99 158,98 159,97 160,96 161,95 162,94 163,93 164,94 165,95 166,94 167,93 168,92 169,93 170,94 171,93 172,94 173,95 174,94 175,93 176,92 177,91 178,90 179,91 180,92 181,91 182,90 183,89 184,90 185,91 186,92 187,93 188,94 189,93 190,94 191,93 192,94 193,95 194,96 195,97 196,98 197,97 198,96 199,97 200,98 201,99 202,100 203,101 204,102 205,101 206,102 207,103 208,104 209,105 210,104 211,105 212,104 213,105 214,104 215,103 216,102 217,101 218,102 219,101 220,102 221,103 222,102 223,103 224,102 225,103 226,104 227,105 228,104 229,105 230,106 231,107 232,108 233,107 234,106 235,107 236,108 237,107 238,106 239,105 240,106 241,105 242,106 243,105 244,104 245,103 246,104 247,103 248,102 249,103 250,104 251,103 252,104 253,105 254,104 255,105 256,106 257,107 258,106 259,105 260,104 261,105 262,104 263,103 264,104 265,103 266,104 267,103 268,104 269,105 270,104 271,105 272,104 273,105 274,104 275,105 276,106 277,105 278,104 279,105 280,104 281,105 282,104 283,103 284,102 285,101 286,102 287,101 288,100 289,101 290,100 291,99 292,98 293,97 294,98 295,99 296,100 297,99 298,100 299,99 300,100 301,99 302,100 303,99 304,100 305,99 306,100 307,99 308,98 309,97 310,98 311,97 312,96 313,97 314,98 315,97 316,96 317,95 318,96 319,95 320,96 321,97 322,96 323,97 324,98 325,99 326,100 327,101 328,100 329,99 330,100 331,101 332,100 333,101 334,100 335,101 336,102 337,103 338,102 339,103 340,102 341,101 342,100 343,99 344,100 345,99 346,100 347,101 348,102 349,103 350,102 351,101 352,100 353,101 354,100 355,101 356,100 357,99 358,100 359,99 360,100 361,101 362,102 363,103 364,104 365,105 366,106 367,107 368,106 369,105 370,104 371,105 372,106 373,105 374,104 375,103 376,102 377,103 378,104 379,103 380,102 381,101 382,102 383,103 384,104 385,105 386,106 387,105 388,104 389,103 390,102 391,101 392,100 393,99 394,98 395,97 396,96 397,95 398,96 399,97 400,200 " style="fill:rgb(33,194,7);stroke:rgb(0,94,0)"></polygon></svg>